<svg width="55" height="42" viewBox="0 0 55 42" fill="none" xmlns="http://www.w3.org/2000/svg">
<path d="M53.1994 41.4262V41.5341H53.3001C53.3189 41.5344 53.3376 41.5297 53.354 41.5204C53.3606 41.5157 53.3659 41.5095 53.3694 41.5023C53.373 41.4951 53.3746 41.4871 53.3743 41.4791C53.3746 41.4712 53.3729 41.4634 53.3694 41.4563C53.3658 41.4493 53.3606 41.4433 53.354 41.4388C53.3378 41.4291 53.319 41.4243 53.3001 41.4251H53.1994V41.4262ZM53.3011 41.3498C53.3443 41.3471 53.387 41.3595 53.422 41.3849C53.4361 41.3964 53.4472 41.411 53.4546 41.4276C53.462 41.4442 53.4653 41.4623 53.4644 41.4804C53.4651 41.496 53.4624 41.5116 53.4565 41.5261C53.4506 41.5405 53.4417 41.5536 53.4304 41.5643C53.4034 41.5878 53.3695 41.6019 53.3338 41.6046L53.4687 41.7584H53.3648L53.2407 41.6056H53.2005V41.7584H53.1136V41.35H53.3025L53.3011 41.3498ZM53.2741 41.8993C53.3197 41.8997 53.3649 41.8905 53.4067 41.8723C53.4469 41.855 53.4836 41.8301 53.5146 41.7992C53.5457 41.7682 53.5706 41.7316 53.5878 41.6912C53.6232 41.6057 53.6232 41.5095 53.5878 41.424C53.5703 41.3838 53.5455 41.3472 53.5146 41.316C53.4836 41.2851 53.4469 41.2603 53.4067 41.2429C53.3646 41.2257 53.3196 41.217 53.2741 41.2175C53.2279 41.2171 53.1821 41.2257 53.1392 41.2429C53.098 41.2599 53.0605 41.2848 53.0288 41.316C52.9811 41.365 52.9488 41.427 52.936 41.4941C52.9232 41.5613 52.9304 41.6308 52.9567 41.6939C52.9732 41.7344 52.9977 41.7711 53.0288 41.8019C53.0605 41.8331 53.098 41.858 53.1392 41.875C53.1818 41.8932 53.2278 41.9024 53.2741 41.902V41.8993ZM53.2741 41.1193C53.3928 41.1192 53.5067 41.1657 53.5913 41.2488C53.6321 41.2888 53.6645 41.3364 53.6868 41.3889C53.7099 41.4429 53.7218 41.5009 53.7218 41.5596C53.7218 41.6183 53.7099 41.6764 53.6868 41.7303C53.664 41.7826 53.6316 41.8301 53.5913 41.8704C53.5499 41.9101 53.5017 41.9421 53.449 41.9649C53.3937 41.9884 53.3342 42.0003 53.2741 42C53.2134 42.0004 53.1531 41.9885 53.0971 41.9649C53.0438 41.9426 52.9952 41.9106 52.9538 41.8704C52.9134 41.8286 52.8815 41.7795 52.8596 41.7257C52.8365 41.6718 52.8246 41.6137 52.8246 41.555C52.8246 41.4964 52.8365 41.4383 52.8596 41.3843C52.8819 41.3318 52.9143 41.2842 52.9551 41.2443C52.996 41.2034 53.0448 41.1712 53.0984 41.1498C53.1545 41.1262 53.2147 41.1143 53.2755 41.1147L53.2741 41.1193ZM11.9478 39.5423C11.9478 38.7636 12.4579 38.124 13.2917 38.124C14.0884 38.124 14.626 38.7361 14.626 39.5423C14.626 40.3485 14.0884 40.9606 13.2917 40.9606C12.4579 40.9606 11.9478 40.3209 11.9478 39.5423V39.5423ZM15.5342 39.5423V37.3265H14.571V37.8662C14.2654 37.4673 13.802 37.2172 13.1718 37.2172C11.9303 37.2172 10.956 38.1909 10.956 39.5434C10.956 40.8958 11.9298 41.8696 13.1718 41.8696C13.8018 41.8696 14.2654 41.6191 14.571 41.2205V41.7584H15.5331V39.5423H15.5342ZM48.0814 39.5423C48.0814 38.7636 48.5915 38.124 49.4254 38.124C50.223 38.124 50.7598 38.7361 50.7598 39.5423C50.7598 40.3485 50.223 40.9606 49.4254 40.9606C48.5917 40.9606 48.0814 40.3209 48.0814 39.5423ZM51.6688 39.5423V35.5479H50.7047V37.8662C50.3992 37.4673 49.9358 37.2172 49.3056 37.2172C48.0641 37.2172 47.0898 38.1909 47.0898 39.5434C47.0898 40.8958 48.0636 41.8696 49.3056 41.8696C49.9358 41.8696 50.3992 41.6191 50.7047 41.2205V41.7584H51.6688V39.5423ZM27.4895 38.0784C28.1102 38.0784 28.5089 38.4676 28.6106 39.1528H26.3122C26.415 38.5132 26.8034 38.0784 27.4897 38.0784H27.4895ZM27.5089 37.2147C26.2107 37.2147 25.3025 38.1594 25.3025 39.5409C25.3025 40.9495 26.2471 41.8672 27.5734 41.8672C28.2406 41.8672 28.8516 41.7006 29.3893 41.2464L28.9172 40.5325C28.5458 40.8294 28.073 40.9959 27.6285 40.9959C27.0077 40.9959 26.4425 40.7085 26.3036 39.911H29.5928C29.6022 39.7911 29.6119 39.6702 29.6119 39.5407C29.6022 38.1596 28.7483 37.2145 27.5084 37.2145L27.5089 37.2147ZM39.1381 39.5407C39.1381 38.762 39.6482 38.1224 40.4819 38.1224C41.2787 38.1224 41.8163 38.7345 41.8163 39.5407C41.8163 40.3469 41.2787 40.959 40.4819 40.959C39.6482 40.959 39.1379 40.3193 39.1379 39.5407H39.1381ZM42.7242 39.5407V37.3265H41.7615V37.8662C41.4549 37.4673 40.9926 37.2172 40.3624 37.2172C39.1209 37.2172 38.1465 38.1909 38.1465 39.5434C38.1465 40.8958 39.1203 41.8696 40.3624 41.8696C40.9926 41.8696 41.4549 41.6191 41.7615 41.2205V41.7584H42.7245V39.5423L42.7242 39.5407ZM33.6984 39.5407C33.6984 40.8845 34.6339 41.8669 36.0616 41.8669C36.7288 41.8669 37.1733 41.7185 37.654 41.3387L37.1914 40.5601C36.8297 40.82 36.45 40.959 36.0308 40.959C35.2619 40.9495 34.6965 40.3935 34.6965 39.5407C34.6965 38.6878 35.2619 38.1321 36.0308 38.1224C36.4489 38.1224 36.8286 38.2614 37.1914 38.5213L37.654 37.7426C37.1725 37.3629 36.728 37.2145 36.0616 37.2145C34.6339 37.2145 33.6984 38.1966 33.6984 39.5407V39.5407ZM46.1163 37.2145C45.5605 37.2145 45.1986 37.4744 44.9484 37.8636V37.3265H43.9938V41.756H44.9581V39.2729C44.9581 38.5399 45.2731 38.1326 45.9028 38.1326C46.109 38.1297 46.3137 38.1675 46.5052 38.2441L46.8021 37.3362C46.5888 37.2522 46.3109 37.2153 46.1157 37.2153L46.1163 37.2145ZM20.2965 37.6787C19.8331 37.3732 19.1945 37.2153 18.4901 37.2153C17.3679 37.2153 16.6454 37.7532 16.6454 38.6333C16.6454 39.3555 17.1833 39.8011 18.1738 39.9401L18.6288 40.0049C19.157 40.0791 19.4064 40.2181 19.4064 40.4683C19.4064 40.8108 19.0555 41.0062 18.3967 41.0062C17.7295 41.0062 17.248 40.793 16.9234 40.5428L16.4707 41.2939C16.9989 41.6831 17.6661 41.8688 18.3886 41.8688C19.6679 41.8688 20.4093 41.2664 20.4093 40.423C20.4093 39.6443 19.8258 39.237 18.8617 39.098L18.4078 39.0322C17.9908 38.9782 17.6567 38.8943 17.6567 38.5974C17.6567 38.2735 17.9716 38.0787 18.5001 38.0787C19.0655 38.0787 19.6129 38.2919 19.8811 38.4584L20.2981 37.6798L20.2965 37.6787ZM32.7254 37.2161C32.1697 37.2161 31.8078 37.476 31.5587 37.8652V37.3265H30.6041V41.756H31.5673V39.2729C31.5673 38.5399 31.8823 38.1326 32.5119 38.1326C32.7181 38.1297 32.9229 38.1675 33.1143 38.2441L33.4112 37.3362C33.198 37.2522 32.92 37.2153 32.7249 37.2153L32.7254 37.2161ZM24.5055 37.3265H22.9304V35.9827H21.9566V37.3265H21.0581V38.2069H21.9566V40.2276C21.9566 41.2553 22.3555 41.8674 23.495 41.8674C23.9131 41.8674 24.3946 41.7379 24.7001 41.5249L24.4218 40.7001C24.1344 40.8667 23.8194 40.9506 23.569 40.9506C23.0875 40.9506 22.9304 40.6537 22.9304 40.2092V38.2077H24.5055V37.3265ZM10.1042 41.7571V38.9771C10.1042 37.9302 9.43701 37.2258 8.36148 37.2163C7.79605 37.2069 7.21281 37.3829 6.80446 38.0044C6.49894 37.5132 6.01745 37.2163 5.34055 37.2163C4.86742 37.2163 4.40509 37.3553 4.04317 37.8741V37.3265H3.0791V41.756H4.05072V39.2999C4.05072 38.531 4.47716 38.1224 5.1357 38.1224C5.77535 38.1224 6.09895 38.5394 6.09895 39.2902V41.7554H7.07274V39.2994C7.07274 38.5305 7.51725 38.1218 8.15663 38.1218C8.81437 38.1218 9.12825 38.5388 9.12825 39.2897V41.7549L10.1042 41.7571Z" fill="#231F20"/>
<path d="M53.7496 27.0223V26.3745H53.5809L53.3858 26.819L53.1918 26.3745H53.0225V27.0223H53.1424V26.5343L53.3248 26.9553H53.449L53.6314 26.5332V27.0223H53.7502H53.7496ZM52.6795 27.0223V26.4854H52.8954V26.3761H52.3438V26.4854H52.5597V27.0223H52.6784H52.6795Z" fill="#F79410"/>
<path d="M34.578 29.8007H19.9805V3.56689H34.5783L34.578 29.8007Z" fill="#FF5F00"/>
<path d="M20.9051 16.6841C20.9051 11.3626 23.3968 6.62216 27.2768 3.56722C24.3398 1.25138 20.7073 -0.0055082 16.9671 1.81463e-05C7.75369 1.81463e-05 0.285156 7.46963 0.285156 16.6841C0.285156 25.8986 7.75369 33.3682 16.9671 33.3682C20.7073 33.3738 24.34 32.1169 27.2771 29.801C23.3973 26.7466 20.9051 22.0059 20.9051 16.6841Z" fill="#EB001B"/>
<path d="M54.2706 16.6841C54.2706 25.8986 46.8021 33.3682 37.5887 33.3682C33.848 33.3737 30.2149 32.1168 27.2773 29.801C31.1584 26.7461 33.6501 22.0059 33.6501 16.6841C33.6501 11.3623 31.1584 6.62216 27.2773 3.56722C30.2149 1.25145 33.8478 -0.00541134 37.5884 1.75133e-05C46.8018 1.75133e-05 54.2703 7.46963 54.2703 16.6841" fill="#F79E1B"/>
</svg>
