<svg width="30" height="30" viewBox="0 0 30 30" fill="none" xmlns="http://www.w3.org/2000/svg">
<path fill-rule="evenodd" clip-rule="evenodd" d="M20.4234 12.8815C21.8199 13.9488 21.8199 16.0516 20.4234 17.1189L14.3168 21.7862C12.562 23.1273 10.0308 21.8761 10.0308 19.6675V10.333C10.0308 8.12434 12.562 6.87308 14.3168 8.21426L20.4234 12.8815ZM18.8041 15.0002L12.6975 10.333L12.6975 19.6675L18.8041 15.0002Z" fill="white"/>
<path fill-rule="evenodd" clip-rule="evenodd" d="M14.9997 3.00016C8.37226 3.00016 2.99967 8.37274 2.99967 15.0002C2.99967 21.6276 8.37226 27.0002 14.9997 27.0002C21.6271 27.0002 26.9997 21.6276 26.9997 15.0002C26.9997 8.37274 21.6271 3.00016 14.9997 3.00016ZM0.333008 15.0002C0.333008 6.89999 6.8995 0.333496 14.9997 0.333496C23.0999 0.333496 29.6663 6.89999 29.6663 15.0002C29.6663 23.1003 23.0999 29.6668 14.9997 29.6668C6.8995 29.6668 0.333008 23.1003 0.333008 15.0002Z" fill="white"/>
</svg>
