<svg width="2880" height="162" viewBox="0 0 2880 162" fill="none" xmlns="http://www.w3.org/2000/svg">
<path d="M2880 50.5L2782 25.6774C2722.28 10.5487 2659.45 13.0047 2601.09 32.7495L2571.23 42.8503C2518.48 60.6967 2461.09 59.1541 2409.37 38.4993C2356.9 17.543 2298.62 16.2705 2245.28 34.9167L2226.86 41.3592C2172.95 60.2039 2114.19 59.815 2060.54 40.2586C2013.61 23.1544 1962.61 20.6569 1914.24 33.0948L1886.25 40.2918C1827.56 55.3848 1765.61 51.7342 1709.1 29.8515C1658.7 10.3383 1603.86 5.27655 1550.74 15.2359L1440 36V162H2880V50.5Z" fill="url(#paint0_linear_1323_187)"/>
<path d="M0 50.5L97.9977 25.6774C157.724 10.5487 220.551 13.0047 278.914 32.7495L308.771 42.8503C361.523 60.6967 418.909 59.1541 470.626 38.4993C523.098 17.543 581.378 16.2705 634.715 34.9167L653.144 41.3592C707.048 60.2039 765.813 59.815 819.463 40.2586C866.386 23.1544 917.388 20.6569 965.758 33.0948L993.746 40.2918C1052.44 55.3848 1114.39 51.7342 1170.9 29.8515C1221.3 10.3383 1276.14 5.27655 1329.26 15.2359L1440 36V162H0V50.5Z" fill="url(#paint1_linear_1323_187)"/>
<defs>
<linearGradient id="paint0_linear_1323_187" x1="2880" y1="81" x2="1440" y2="81" gradientUnits="userSpaceOnUse">
<stop stop-color="#0052D4"/>
<stop offset="0.5" stop-color="#4364F7"/>
<stop offset="1" stop-color="#6FB1FC"/>
</linearGradient>
<linearGradient id="paint1_linear_1323_187" x1="0" y1="81" x2="1440" y2="81" gradientUnits="userSpaceOnUse">
<stop stop-color="#0052D4"/>
<stop offset="0.5" stop-color="#4364F7"/>
<stop offset="1" stop-color="#6FB1FC"/>
</linearGradient>
</defs>
</svg>
