<svg version="1.2" xmlns="http://www.w3.org/2000/svg" viewBox="0 0 2880 155" width="2880" height="155">
	<title>Ocean 1 edited-svg</title>
	<defs>
		<linearGradient id="g1" x1="0" y1="77.6" x2="1440" y2="77.6" gradientUnits="userSpaceOnUse">
			<stop offset="0" stop-color="#0052d4" stop-opacity=".8"/>
			<stop offset=".5" stop-color="#4364f7" stop-opacity=".8"/>
			<stop offset="1" stop-color="#6fb1fc" stop-opacity=".8"/>
		</linearGradient>
		<linearGradient id="g2" x1="0" y1="77.6" x2="1440" y2="77.6" gradientUnits="userSpaceOnUse">
			<stop offset="0" stop-color="#004e84"/>
			<stop offset="1" stop-color="#01adeb"/>
		</linearGradient>
		<linearGradient id="g3" x1="2880" y1="77.6" x2="1440" y2="77.6" gradientUnits="userSpaceOnUse">
			<stop offset="0" stop-color="#0052d4" stop-opacity=".8"/>
			<stop offset=".5" stop-color="#4364f7" stop-opacity=".8"/>
			<stop offset="1" stop-color="#6fb1fc" stop-opacity=".8"/>
		</linearGradient>
		<linearGradient id="g4" x1="2880" y1="77.6" x2="1440" y2="77.6" gradientUnits="userSpaceOnUse">
			<stop offset="0" stop-color="#004e84"/>
			<stop offset="1" stop-color="#01adeb"/>
		</linearGradient>
	</defs>
	<style>
		.s0 { opacity: 0;fill: #ffffff } 
		.s1 { fill: url(#g1) } 
		.s2 { fill: url(#g2) } 
		.s3 { fill: url(#g3) } 
		.s4 { fill: url(#g4) } 
	</style>
	<path id="Layer" class="s0" d="m-60-2822h3000v3000h-3000z"/>
	<g id="395780">
		<g id="Layer">
			<g id="Layer">
				<path id="Layer" class="s1" d="m0 3.6l98.1 20.4c61.2 12.7 124.5 11.9 185.4-2.4 50.6-11.9 103-14.5 154.5-7.7l38.8 5.2c44.6 5.9 89.9 5.8 134.5-0.4l26-3.6c54.8-7.6 110.4-5.6 164.4 6 66.1 14.2 134.5 14 200.6-0.5l1.9-0.4c50.2-11 101.9-13.9 153.1-8.6l50.9 5.3c34.1 3.5 68.6 3.5 102.7 0l129.1-13.3v148h-1440z"/>
			</g>
			<g id="Layer">
				<path id="Layer" class="s2" d="m0 3.6l98.1 20.4c61.2 12.7 124.5 11.9 185.4-2.4 50.6-11.9 103-14.5 154.5-7.7l38.8 5.2c44.6 5.9 89.9 5.8 134.5-0.4l26-3.6c54.8-7.6 110.4-5.6 164.4 6 66.1 14.2 134.5 14 200.6-0.5l1.9-0.4c50.2-11 101.9-13.9 153.1-8.6l50.9 5.3c34.1 3.5 68.6 3.5 102.7 0l129.1-13.3v148h-1440z"/>
			</g>
		</g>
	</g>
	<g id="485581">
		<g id="Layer">
			<g id="Layer">
				<path id="Layer" class="s3" d="m2880 151.6h-1440v-148l129.1 13.3c34.1 3.5 68.6 3.5 102.7 0l50.9-5.3c51.2-5.3 102.9-2.4 153.1 8.6l1.9 0.4c66.1 14.5 134.5 14.7 200.6 0.5 54-11.6 109.6-13.6 164.4-6l26 3.6c44.6 6.2 89.9 6.3 134.5 0.4l38.8-5.2c51.5-6.8 103.9-4.2 154.5 7.7 60.9 14.3 124.2 15.1 185.4 2.4l98.1-20.4z"/>
			</g>
			<g id="Layer">
				<path id="Layer" class="s4" d="m2880 151.6h-1440v-148l129.1 13.3c34.1 3.5 68.6 3.5 102.7 0l50.9-5.3c51.2-5.3 102.9-2.4 153.1 8.6l1.9 0.4c66.1 14.5 134.5 14.7 200.6 0.5 54-11.6 109.6-13.6 164.4-6l26 3.6c44.6 6.2 89.9 6.3 134.5 0.4l38.8-5.2c51.5-6.8 103.9-4.2 154.5 7.7 60.9 14.3 124.2 15.1 185.4 2.4l98.1-20.4z"/>
			</g>
		</g>
	</g>
</svg>