<svg width="2880" height="159" viewBox="0 0 2880 159" fill="none" xmlns="http://www.w3.org/2000/svg">
<path d="M2880 34.3918L2831.58 24.2698C2755.24 8.31179 2676.23 10.4494 2600.87 30.5114L2563.67 40.4135C2496.51 58.2938 2425.64 56.7233 2359.33 35.8849C2292.04 14.7369 2220.08 13.4398 2152.07 32.1491L2102.12 45.8878C2049.41 60.389 1994.67 66.1463 1940.09 62.9305L1852.53 57.7712C1821.25 55.9278 1790.2 51.1471 1759.81 43.492L1725.32 34.8038C1643.76 14.2596 1558.33 14.6223 1476.95 35.8584L1440 45.5V154.514L2880 159V34.3918Z" fill="url(#paint0_linear_1323_184)" fill-opacity="0.5"/>
<path d="M0 34.3918L48.4195 24.2698C124.756 8.31179 203.768 10.4494 279.13 30.5114L316.327 40.4135C383.493 58.2938 454.358 56.7233 520.666 35.8849C587.959 14.7369 659.923 13.4398 727.934 32.1491L777.877 45.8878C830.591 60.389 885.327 66.1463 939.905 62.9305L1027.47 57.7712C1058.75 55.9278 1089.8 51.1471 1120.19 43.492L1154.68 34.8038C1236.24 14.2596 1321.67 14.6223 1403.05 35.8584L1440 45.5V154.514L0 159V34.3918Z" fill="url(#paint1_linear_1323_184)" fill-opacity="0.5"/>
<defs>
<linearGradient id="paint0_linear_1323_184" x1="2955.55" y1="78.2539" x2="1131.29" y2="78.2539" gradientUnits="userSpaceOnUse">
<stop stop-color="#0052D4"/>
<stop offset="0.5" stop-color="#4364F7"/>
<stop offset="1" stop-color="#6FB1FC"/>
</linearGradient>
<linearGradient id="paint1_linear_1323_184" x1="-75.5525" y1="78.2539" x2="1748.71" y2="78.2539" gradientUnits="userSpaceOnUse">
<stop stop-color="#0052D4"/>
<stop offset="0.5" stop-color="#4364F7"/>
<stop offset="1" stop-color="#6FB1FC"/>
</linearGradient>
</defs>
</svg>
