<svg width="78" height="21" viewBox="0 0 78 21" fill="none" xmlns="http://www.w3.org/2000/svg">
<path d="M14.2745 2.38137C13.3584 1.3372 11.7024 0.889542 9.58398 0.889542H3.43554C3.22583 0.889429 3.02296 0.964169 2.86345 1.10031C2.70394 1.23645 2.59825 1.42505 2.5654 1.63217L0.00642579 17.8698C-0.0054398 17.9452 -0.000834347 18.0222 0.0199251 18.0956C0.0406846 18.1689 0.0771046 18.2369 0.126676 18.2949C0.176247 18.3528 0.237791 18.3993 0.307067 18.4312C0.376344 18.4631 0.451706 18.4796 0.527962 18.4795H4.32374L5.27706 12.4328L5.24751 12.6222C5.27973 12.4155 5.38471 12.2271 5.54354 12.0909C5.70237 11.9548 5.90461 11.8798 6.11382 11.8796H7.91758C11.4611 11.8796 14.2357 10.4403 15.0462 6.27675C15.0702 6.15361 15.091 6.03376 15.1091 5.91665C15.3499 4.37776 15.1074 3.33031 14.2751 2.38191" fill="#003087"/>
<path d="M60.7441 10.1075C60.5121 11.6311 59.3486 11.6311 58.2234 11.6311H57.5831L58.0324 8.78645C58.0598 8.61461 58.2076 8.48819 58.3816 8.48819H58.6755C59.4416 8.48819 60.1651 8.48819 60.5383 8.92436C60.7611 9.1854 60.8284 9.57286 60.7441 10.1075ZM60.2543 6.13225H56.0098C55.8692 6.13232 55.7332 6.18249 55.6263 6.27376C55.5194 6.36504 55.4485 6.49143 55.4264 6.63025L53.7113 17.5136C53.7034 17.564 53.7065 17.6156 53.7204 17.6647C53.7343 17.7139 53.7587 17.7594 53.7919 17.7982C53.825 17.8371 53.8662 17.8683 53.9126 17.8897C53.9589 17.9111 54.0094 17.9223 54.0604 17.9224H56.2385C56.4416 17.9224 56.6145 17.7746 56.6462 17.5743L57.1333 14.4878C57.1782 14.2016 57.4255 13.9898 57.7156 13.9898H59.0585C61.855 13.9898 63.4683 12.6375 63.8897 9.95539C64.0796 8.78316 63.8974 7.86158 63.3485 7.21636C62.7449 6.50712 61.675 6.1317 60.2548 6.1317" fill="#009CDE"/>
<path d="M30.4698 10.1076C30.2377 11.6312 29.0743 11.6312 27.9486 11.6312H27.3083L27.7576 8.78655C27.7849 8.61471 27.9327 8.48829 28.1067 8.48829H28.4006C29.1668 8.48829 29.8902 8.48829 30.2635 8.92446C30.4867 9.1855 30.554 9.57296 30.4698 10.1076ZM29.98 6.13235H25.7354C25.4454 6.13235 25.198 6.34359 25.1526 6.63035L23.437 17.5137C23.429 17.5641 23.432 17.6157 23.4459 17.6649C23.4598 17.7141 23.4841 17.7597 23.5173 17.7985C23.5505 17.8374 23.5917 17.8686 23.6381 17.89C23.6845 17.9114 23.735 17.9225 23.7861 17.9225H25.8132C26.1032 17.9225 26.35 17.7112 26.3954 17.4245L26.859 14.4884C26.9038 14.2017 27.1512 13.9904 27.4412 13.9904H28.7842C31.5807 13.9904 33.194 12.6376 33.6154 9.95549C33.8053 8.78327 33.6231 7.86168 33.0742 7.21647C32.4705 6.50722 31.4007 6.1318 29.9805 6.1318L29.98 6.13235ZM39.8344 14.015C39.6374 15.1763 38.7164 15.9562 37.5403 15.9562C36.9509 15.9562 36.4787 15.7663 36.1755 15.4073C35.8745 15.0516 35.7618 14.5442 35.857 13.98C36.0398 12.8286 36.9767 12.0241 38.1347 12.0241C38.712 12.0241 39.1799 12.2157 39.4897 12.5779C39.8011 12.943 39.9236 13.453 39.8344 14.015ZM42.667 10.0584H40.6345C40.55 10.0583 40.4683 10.0884 40.4041 10.1433C40.3398 10.1982 40.2973 10.2742 40.2843 10.3577L40.1956 10.9258L40.0533 10.72C39.6134 10.0814 38.6321 9.86738 37.6525 9.86738C35.4071 9.86738 33.489 11.5694 33.1158 13.9554C32.9215 15.1468 33.1973 16.2845 33.8726 17.0786C34.4927 17.8081 35.3776 18.1118 36.4321 18.1118C38.2425 18.1118 39.2461 16.9494 39.2461 16.9494L39.1553 17.5142C39.1473 17.5647 39.1504 17.6164 39.1643 17.6656C39.1782 17.7148 39.2026 17.7604 39.2358 17.7993C39.2691 17.8382 39.3104 17.8693 39.3568 17.8907C39.4033 17.9121 39.4539 17.9231 39.505 17.923H41.335C41.6251 17.923 41.8724 17.7123 41.9179 17.425L43.0167 10.4677C43.0247 10.4172 43.0215 10.3655 43.0075 10.3163C42.9936 10.2671 42.9691 10.2215 42.9358 10.1826C42.9025 10.1438 42.8612 10.1126 42.8147 10.0912C42.7682 10.0699 42.7177 10.0589 42.6665 10.0589" fill="#003087"/>
<path d="M70.1076 14.0155C69.9106 15.1768 68.9896 15.9567 67.8135 15.9567C67.2241 15.9567 66.7518 15.7668 66.4486 15.4078C66.1476 15.052 66.0349 14.5447 66.1301 13.9805C66.3129 12.8291 67.2493 12.0246 68.4078 12.0246C68.9852 12.0246 69.4531 12.2162 69.7628 12.5784C70.0742 12.9435 70.1968 13.4535 70.1076 14.0155ZM72.9402 10.0589H70.9077C70.8232 10.0588 70.7414 10.0889 70.6772 10.1438C70.613 10.1987 70.5705 10.2747 70.5574 10.3582L70.4688 10.9263L70.3265 10.7205C69.8865 10.0818 68.9053 9.86787 67.9257 9.86787C65.6808 9.86787 63.7627 11.5698 63.3889 13.9559C63.1946 15.1473 63.471 16.285 64.1463 17.0791C64.7664 17.8086 65.6513 18.1123 66.7058 18.1123C68.5167 18.1123 69.5204 16.9499 69.5204 16.9499L69.4295 17.5147C69.4214 17.5652 69.4243 17.6168 69.438 17.666C69.4518 17.7152 69.4761 17.7609 69.5093 17.7997C69.5424 17.8386 69.5837 17.8699 69.6301 17.8912C69.6765 17.9126 69.727 17.9236 69.7781 17.9235H71.6076C71.8977 17.9235 72.145 17.7128 72.191 17.4255L73.2899 10.4682C73.2978 10.4177 73.2947 10.366 73.2807 10.3168C73.2667 10.2676 73.2423 10.222 73.209 10.1831C73.1757 10.1443 73.1344 10.1131 73.0879 10.0917C73.0414 10.0704 72.9908 10.0594 72.9397 10.0594" fill="#009CDE"/>
<path d="M53.4941 10.0592H51.4506C51.2553 10.0592 51.073 10.1561 50.9636 10.3181L48.1452 14.4685L46.9505 10.4801C46.9141 10.3584 46.8394 10.2517 46.7376 10.1758C46.6358 10.0999 46.5122 10.0589 46.3852 10.0587H44.3773C44.321 10.0587 44.2655 10.0722 44.2155 10.0979C44.1654 10.1237 44.1222 10.161 44.0895 10.2068C44.0567 10.2526 44.0354 10.3056 44.0272 10.3613C44.019 10.417 44.0242 10.4738 44.0424 10.5271L46.2916 17.1303L44.176 20.1156C44.1386 20.1686 44.1164 20.2309 44.112 20.2956C44.1076 20.3603 44.121 20.4249 44.1508 20.4825C44.1806 20.5401 44.2257 20.5884 44.2811 20.6222C44.3365 20.6559 44.4001 20.6738 44.4649 20.6738H46.5062C46.6988 20.6738 46.8799 20.5792 46.9905 20.4204L53.7842 10.6147C53.821 10.5617 53.8427 10.4996 53.8468 10.4351C53.8509 10.3707 53.8372 10.3064 53.8073 10.2491C53.7775 10.1919 53.7325 10.1439 53.6772 10.1104C53.622 10.077 53.5587 10.0592 53.4941 10.0592Z" fill="#003087"/>
<path d="M75.3366 6.43252L73.5941 17.515C73.5862 17.5655 73.5893 17.6171 73.6033 17.6663C73.6172 17.7155 73.6416 17.7611 73.6749 17.7999C73.7081 17.8388 73.7493 17.8699 73.7958 17.8913C73.8422 17.9127 73.8927 17.9238 73.9438 17.9238H75.6956C75.9856 17.9238 76.233 17.7126 76.2784 17.4258L77.9962 6.54197C78.0042 6.49145 78.0012 6.4398 77.9873 6.39059C77.9734 6.34137 77.949 6.29575 77.9157 6.25689C77.8825 6.21802 77.8412 6.18684 77.7947 6.16548C77.7482 6.14412 77.6977 6.13309 77.6465 6.13317H75.6863C75.6019 6.13295 75.5202 6.16297 75.4561 6.21779C75.3919 6.2726 75.3495 6.34859 75.3366 6.43197" fill="#009CDE"/>
<path d="M14.2745 2.38137C13.3584 1.3372 11.7024 0.889542 9.58398 0.889542H3.43554C3.22583 0.889429 3.02296 0.964169 2.86345 1.10031C2.70394 1.23645 2.59825 1.42505 2.5654 1.63217L0.00642579 17.8698C-0.0054398 17.9452 -0.000834347 18.0222 0.0199251 18.0956C0.0406846 18.1689 0.0771046 18.2369 0.126676 18.2949C0.176247 18.3528 0.237791 18.3993 0.307067 18.4312C0.376344 18.4631 0.451706 18.4796 0.527962 18.4795H4.32374L5.27706 12.4328L5.24751 12.6222C5.27973 12.4155 5.38471 12.2271 5.54354 12.0909C5.70237 11.9548 5.90461 11.8798 6.11382 11.8796H7.91758C11.4611 11.8796 14.2357 10.4403 15.0462 6.27675C15.0702 6.15361 15.091 6.03376 15.1091 5.91665C15.3499 4.37776 15.1074 3.33031 14.2751 2.38191" fill="#003087"/>
<path d="M6.30162 5.93696C6.33038 5.75598 6.4227 5.59117 6.56201 5.47212C6.70132 5.35307 6.8785 5.28757 7.06176 5.28736H11.882C12.4528 5.28736 12.9853 5.32458 13.4718 5.40229C13.7378 5.44508 14.0009 5.50393 14.2598 5.57851C14.5538 5.66116 14.8383 5.77452 15.1086 5.91671C15.3505 4.37728 15.1075 3.33037 14.2752 2.38143C13.3585 1.33781 11.703 0.89015 9.58461 0.89015H3.43563C3.22611 0.890299 3.0235 0.965157 2.86421 1.10127C2.70493 1.23739 2.5994 1.42584 2.56658 1.63278L0.00651227 17.8688C-0.00543363 17.9441 -0.00090687 18.0212 0.0197809 18.0946C0.0404687 18.168 0.0768255 18.236 0.126346 18.294C0.175866 18.352 0.237373 18.3986 0.306627 18.4305C0.375882 18.4625 0.451237 18.479 0.527501 18.479H4.32383L5.27715 12.4318L6.30162 5.93696Z" fill="#003087"/>
<path d="M15.1094 5.91594C15.0906 6.03634 15.0696 6.15639 15.0464 6.27603C14.236 10.439 11.4614 11.8789 7.91787 11.8789H6.11356C5.90439 11.879 5.70217 11.9539 5.5434 12.0901C5.38463 12.2263 5.27979 12.4148 5.2478 12.6215L4.32403 18.4782L4.06135 20.1397C4.0509 20.2057 4.05489 20.2731 4.07302 20.3374C4.09116 20.4017 4.12302 20.4612 4.1664 20.512C4.20979 20.5628 4.26367 20.6035 4.32432 20.6315C4.38498 20.6594 4.45098 20.6739 4.51776 20.6738H7.71758C8.09628 20.6738 8.41807 20.398 8.47772 20.0242L8.50891 19.8612L9.11199 16.0391L9.1503 15.8279C9.17897 15.6467 9.27134 15.4818 9.41079 15.3627C9.55024 15.2436 9.72761 15.1782 9.91098 15.1783H10.3898C13.4895 15.1783 15.9166 13.9196 16.6258 10.277C16.9214 8.75565 16.7681 7.48438 15.9855 6.5918C15.737 6.31507 15.4401 6.08603 15.1094 5.91594Z" fill="#009CDE"/>
<path d="M14.2589 5.57887C14.1352 5.5422 14.0077 5.50937 13.8763 5.48036C13.745 5.45136 13.6093 5.42564 13.4703 5.40374C12.9832 5.32439 12.4513 5.28718 11.8799 5.28718H7.06025C6.8768 5.28695 6.69932 5.35238 6.5599 5.47162C6.42049 5.59086 6.32834 5.75605 6.30011 5.93732L5.27565 12.4333L5.24609 12.6221C5.27808 12.4154 5.38293 12.2269 5.54169 12.0907C5.70046 11.9545 5.90268 11.8796 6.11185 11.8794H7.91616C11.4597 11.8794 14.2343 10.4402 15.0447 6.27662C15.0688 6.15349 15.0891 6.03419 15.1077 5.91653C14.8936 5.80453 14.6707 5.71044 14.4411 5.63523C14.3815 5.61553 14.3207 5.59693 14.2589 5.57832" fill="#012169"/>
</svg>
